<svg width="25" height="25" viewBox="0 0 25 25" fill="none" xmlns="http://www.w3.org/2000/svg">
<path d="M10.6152 1.33936C9.25293 1.3623 8.02246 2.1748 7.46582 3.43115L14.1309 5.44434C14.4238 3.69678 13.374 2.00244 11.6846 1.48828C11.3818 1.39648 11.0645 1.34619 10.7471 1.33936H10.6152ZM7.21191 4.27295C6.91406 6.02539 7.96386 7.72461 9.6582 8.2373C11.3574 8.75 13.1689 7.91016 13.8818 6.28418L7.21191 4.27295ZM20.1758 6.43555C18.9404 6.44043 17.627 7.03613 16.6357 8.4375L10.542 17.0752C8.90625 19.3897 9.61914 21.8115 11.2305 22.9541C12.8467 24.1016 15.3613 23.9697 16.9971 21.6553L23.0859 13.0225C24.7217 10.7031 24.0088 8.28613 22.3975 7.13867C21.792 6.70898 21.0645 6.45996 20.2978 6.43555H20.1758ZM20.0879 7.28027C20.1514 7.28027 20.2148 7.28027 20.2734 7.28516C20.8643 7.30957 21.4209 7.51953 21.8896 7.85645C23.1445 8.74512 23.7744 10.5176 22.3633 12.5146L19.2139 16.9824C17.4658 16.5137 15.2197 14.917 14.1992 13.418L17.3584 8.94531C18.1836 7.77832 19.165 7.29981 20.0879 7.28027ZM4.45556 11.001C3.98584 11.0059 3.52246 11.1035 3.09179 11.2939C1.47509 12.002 0.633786 13.8086 1.12695 15.5078L7.50976 12.7197C6.87011 11.6406 5.708 10.9863 4.45556 11.001ZM7.85644 13.5205L1.47461 16.3135C2.37549 17.8467 4.27246 18.4619 5.89844 17.7539C7.51953 17.041 8.35937 15.2246 7.85644 13.5205Z" fill="#7397B4"/>
</svg>
